<svg xmlns="http://www.w3.org/2000/svg" width="1456" height="258" viewBox="0 0 1456 258">
<rect width="1456" height="258" rx="22" fill="#09121a"/>
<defs><marker id="arrow" markerWidth="8" markerHeight="8" refX="6" refY="3" orient="auto"><path d="M0,0 L0,6 L7,3 z" fill="#54d6e8"/></marker></defs>
<text x="50" y="40" fill="#7ee2a8" font-size="16" font-weight="700">METHOD</text>
<rect x="50" y="72" width="238" height="112" rx="18" fill="#111d27" stroke="#355365"/><text x="169" y="118" text-anchor="middle" fill="#f4f7fa" font-size="21" font-weight="700">Single-view video</text><text x="169" y="151" text-anchor="middle" fill="#9aabb8" font-size="15">in-the-wild golf swing</text><rect x="342" y="72" width="238" height="112" rx="18" fill="#111d27" stroke="#355365"/><text x="461" y="118" text-anchor="middle" fill="#f4f7fa" font-size="21" font-weight="700">RTMPose 2D</text><text x="461" y="151" text-anchor="middle" fill="#9aabb8" font-size="15">17 body keypoints</text><rect x="634" y="72" width="238" height="112" rx="18" fill="#111d27" stroke="#355365"/><text x="753" y="118" text-anchor="middle" fill="#f4f7fa" font-size="21" font-weight="700">Reliable pseudo-3D</text><text x="753" y="151" text-anchor="middle" fill="#9aabb8" font-size="15">GVHMR teacher + gating</text><rect x="926" y="72" width="238" height="112" rx="18" fill="#111d27" stroke="#355365"/><text x="1045" y="118" text-anchor="middle" fill="#f4f7fa" font-size="21" font-weight="700">MotionAGFormer</text><text x="1045" y="151" text-anchor="middle" fill="#9aabb8" font-size="15">temporal 2D→3D lifter</text><rect x="1218" y="72" width="238" height="112" rx="18" fill="#111d27" stroke="#355365"/><text x="1337" y="118" text-anchor="middle" fill="#f4f7fa" font-size="21" font-weight="700">Golf motion</text><text x="1337" y="151" text-anchor="middle" fill="#9aabb8" font-size="15">3D pose + X-Factor</text>
<path d="M 294 128 H 332" stroke="#54d6e8" stroke-width="3" marker-end="url(#arrow)"/><path d="M 586 128 H 624" stroke="#54d6e8" stroke-width="3" marker-end="url(#arrow)"/><path d="M 878 128 H 916" stroke="#54d6e8" stroke-width="3" marker-end="url(#arrow)"/><path d="M 1170 128 H 1208" stroke="#54d6e8" stroke-width="3" marker-end="url(#arrow)"/>
<text x="1406" y="226" text-anchor="end" fill="#9aabb8" font-size="13">341 video pseudo-labels · gentle reliability gating · 243-frame temporal context</text>
</svg>